<svg xmlns="http://www.w3.org/2000/svg" version="1" viewBox="0 0 700 700">
  <path d="M384.5 46.4c-2.7 1.3-5.8 3.4-6.9 4.6-2.8 3.4-5.5 10.2-6.1 15.1-.3 2.4-1 6.9-1.5 9.9s-1.2 7.1-1.4 9c-1.4 9.6-2.4 16.3-3.6 23-.5 3-1.2 7.5-1.5 10-.3 2.5-.7 5.6-1 7-.7 3.5-1.4 8.1-1.9 12.1-.8 5.4-1.6 10.8-3.2 20.3-.8 5-1.7 10.8-1.9 13-.3 2.3-.7 5.2-1 6.6-.8 4.1-1.5 8.5-2 13.1-.3 2.4-1.5 10-2.6 16.9-1.2 6.9-2.3 14.1-2.5 16-.2 1.9-.9 6-1.4 9-.5 3-1.1 7.3-1.5 9.5-.3 2.2-.7 5.1-1 6.5-.2 1.4-.7 4.3-1 6.5-.3 2.2-1 6.7-1.5 10s-1.2 7.8-1.5 10c-.3 2.2-.8 5.1-1 6.5-.3 1.4-.7 4.3-1.1 6.5-.3 2.2-.7 5.1-1 6.5-.2 1.4-.7 4.3-.9 6.5-.3 2.2-1 6.5-1.5 9.5-1.7 9.9-2 11.8-2.5 16.1-.3 2.4-.7 5.5-1 6.9-.7 3.5-1.4 8.1-1.9 12.1-.3 1.9-.8 5.2-1.1 7.4-.3 2.2-1.1 6.9-1.6 10.5-.5 3.6-1.2 7.6-1.4 9-.9 5.7-3.4 21.8-4 25.5-.3 2.3-.7 5-.9 6-.2 1.1-.7 4.2-1 7-.4 2.7-.9 5.7-1.1 6.5-.2.8-.6 3.5-.9 6-.3 2.5-.8 5.4-1 6.5-.3 1.8-1.5 9.2-2.1 13.5-.2.8-.6 3.7-.9 6.5-.4 2.7-1.3 8.8-2.1 13.5-.8 4.7-1.7 10.3-2 12.5-3.7 25-6.1 40.2-6.5 41.5-.1.3-1.4-4.9-3-11.5-1.5-6.6-3.7-15.8-4.8-20.5-2.1-9.3-10.2-44.6-10.7-47-.2-.8-1.7-7.1-3.3-14-3.5-14.6-5.1-21.6-5.7-24.8-.2-1.3-.7-3.2-1-4.2-.3-1-.8-2.7-1-3.7-.2-1-1.3-6.1-2.5-11.3-1.2-5.2-2.4-10.6-2.6-11.9-.3-1.4-.7-2.8-.9-3.1-.2-.4-.7-2.1-1-3.8-1.2-6.9-3.5-16.1-5-19.6-2.1-4.9-4.2-7.3-9.5-10.4l-4.5-2.7H164c-78.4 0-82.7.1-85.9 1.9-13.3 7.2-16.3 24.2-6 34.5 7.2 7.1 6.5 7.1 72.7 7 32.3 0 63.2 0 68.8.1 7.3 0 10.1.3 10.1 1.2 0 .7 1.1 5.6 2.3 10.8 1.2 5.2 2.3 10.2 2.5 11 .2.8 1.3 5.3 2.4 10 1.1 4.7 2.2 9.7 2.4 11 .3 1.4 1.2 5.2 2 8.5.9 3.3 1.8 7.1 2.1 8.5.2 1.4 1 4.7 1.6 7.5.6 2.7 1.3 5.7 1.5 6.5 2.2 9.7 3.9 16.9 5.6 24 1.2 4.7 2.3 9.6 2.6 11 .2 1.4 1.7 7.9 3.3 14.5 2.2 9.3 6.6 28.5 7.5 32.5.1.3.4 1.8.8 3.5.4 1.6.9 3.9 1.1 5 .2 1.1 1.6 6.9 3 12.8s2.8 11.5 3 12.5c.1.9.6 2.8.9 4.2.8 3.2 14.7 63.9 15.3 66.5.2 1.1 1.1 4.4 2 7.2 3.8 12.1 17.5 18.3 29.7 13.4 6.5-2.6 12.1-11.1 13.2-20.3.3-2.4.9-6.8 1.5-9.8.5-3 1.2-7.5 1.5-10 .5-4.1 1.4-9.9 6-38.5.8-5 1.7-11 2-13.5.3-2.5 1.4-9.7 2.5-16 1-6.3 2.1-13.5 2.4-16 .3-2.5 1-7 1.6-10 .5-3 1.2-7.3 1.5-9.5.3-2.2 1.4-9.4 2.5-16 1-6.6 2.2-14 2.5-16.5.3-2.5.8-5.6 1-7 .2-1.4 1.4-8.6 2.5-16s2.3-14.6 2.5-16c.2-1.4 1.1-7.5 2-13.5.9-6.1 1.9-12.1 2.1-13.5.2-1.4.7-4.3 1-6.5.3-2.2.9-6.5 1.4-9.5.6-3 1.2-7.3 1.5-9.5.4-2.2.8-5.1 1.1-6.5.2-1.4.7-4.3.9-6.5.3-2.2 1-6.5 1.5-9.5 1-6.3 2-12.2 2.5-16.3 1.3-9.2 1.6-11.4 2-12.7.2-.8.6-3.5.9-6 .3-2.5.8-5.4 1-6.5.2-1.1.7-4.3 1-7 .4-2.8.9-5.7 1.1-6.5.2-.8.6-3.5.9-6 .3-2.5 1.4-9.9 2.5-16.5s2.3-14.3 2.6-17c.4-2.8.8-5.7 1-6.5.2-.8.7-3.8 1.1-6.5.3-2.8.8-5.9 1-7 .2-1 .6-3.7.9-6 .3-2.2 1.3-8.3 2.1-13.5.8-5.2 1.7-11.1 2-13 .3-1.9.9-6 1.4-9 .5-3 1.2-7.5 1.5-10 .3-2.5 1.1-7 1.7-10l1.1-5.5 3.3 14.5c1.9 8 4.1 17.6 5 21.5.8 3.8 1.7 7.7 1.9 8.5.2.8 2 8.5 4 17s3.8 16.6 4.1 18c.3 1.4 1.4 6.1 2.4 10.5 1.9 7.8 8.7 37 9.6 41 .2 1.1.6 2.9.8 4 .4 1.9 2.3 10.3 3.1 13.5.2.8 1.5 6.5 3 12.7 3.9 17 6.4 21.5 14.5 25.9 3.4 1.8 7 1.9 86 1.9 90.4 0 84.8.4 91.3-5.7 9.4-8.8 8.6-24.8-1.6-32.8-6.1-4.8-6-4.8-79.2-4.8-37.8-.1-69.1-.4-69.6-.9-.4-.4-1.1-2.4-1.4-4.3-.3-1.9-1.5-7.1-2.5-11.5-2.3-9.5-8.9-38-9.6-41.4-.3-1.2-1.2-5.3-2-9-.9-3.6-1.7-7.3-1.9-8.1-.2-.8-2-8.5-4-17-3.5-15-4-17.2-4.9-21.5-.2-1.1-1.5-6.7-2.9-12.5s-3.3-13.7-4.1-17.5c-.8-3.9-4.7-20.7-8.6-37.5-3.9-16.8-7.4-31.6-7.6-33-.3-1.4-2-8.8-3.8-16.5-1.8-7.7-4.6-19.4-6.1-25.9-3.5-15-4.5-17.4-9.4-21.9-6.7-6.1-15.2-7.3-23.6-3.3z"/>
</svg>
