<?xml version="1.0" standalone="no"?>
<!DOCTYPE svg PUBLIC "-//W3C//DTD SVG 20010904//EN"
 "http://www.w3.org/TR/2001/REC-SVG-20010904/DTD/svg10.dtd">
<svg version="1.0" xmlns="http://www.w3.org/2000/svg"
 width="1024.000000pt" height="1024.000000pt" viewBox="0 0 1024.000000 1024.000000"
 preserveAspectRatio="xMidYMid meet">
<metadata>
Created by potrace 1.11, written by Peter Selinger 2001-2013
</metadata>
<g transform="translate(0.000000,1024.000000) scale(0.100000,-0.100000)"
fill="#000000" stroke="none">
<path d="M919 10236 c-2 -2 -23 -6 -46 -10 -64 -8 -160 -35 -233 -63 -58 -23
-197 -97 -210 -112 -3 -3 -29 -26 -59 -50 -58 -48 -113 -105 -161 -167 -16
-21 -35 -45 -41 -52 -43 -52 -122 -249 -155 -392 -12 -51 -15 -8431 -3 -8505
64 -400 325 -711 699 -833 162 -53 -103 -50 4440 -48 2318 1 4227 5 4241 9
175 48 278 87 344 129 179 115 307 251 388 411 59 119 80 184 107 342 11 61 8
8449 -3 8485 -4 14 -10 41 -13 60 -16 84 -102 293 -133 320 -3 3 -14 18 -23
35 -25 45 -116 145 -177 196 -29 24 -59 49 -65 55 -16 15 -123 76 -178 102
-44 20 -167 59 -248 78 -34 8 -8462 18 -8471 10z"/>
</g>
</svg>
